<svg width="44" height="44" viewBox="0 0 44 44" fill="none" xmlns="http://www.w3.org/2000/svg">
<g clip-path="url(#clip0_3969_1070)">
<g clip-path="url(#clip1_3969_1070)">
<g clip-path="url(#clip2_3969_1070)">
<path d="M22.0054 0H21.9946C9.8473 0 0 9.8473 0 21.9946V22.0054C0 34.1527 9.8473 44 21.9946 44H22.0054C34.1527 44 44 34.1527 44 22.0054V21.9946C44 9.8473 34.1527 0 22.0054 0Z" fill="#3D3D3D"/>
<path d="M12.9162 10.2743L20.5703 5.86015C21.0269 5.59921 21.6032 5.92538 21.6032 6.45812V26.6479C21.6032 26.8218 21.4075 26.9414 21.2553 26.8436L12.9054 22.0272C12.5792 21.8424 12.3835 21.4944 12.3835 21.1248V11.1767C12.3835 10.807 12.5792 10.4591 12.9054 10.2743H12.9162Z" fill="white"/>
<path d="M22.0598 27.6699C22.2881 27.5068 22.3968 27.2893 22.4186 27.0067V26.6479V17.5369C22.4186 17.0042 22.9948 16.6672 23.4515 16.939L31.2903 21.4618C31.5078 21.5814 31.6383 21.8097 31.6383 22.0598V31.3121C31.6383 32.2145 31.1599 33.0516 30.3662 33.5083L22.3534 38.129C22.1359 38.2486 21.875 38.2486 21.6575 38.129L13.8186 33.6061C13.362 33.3452 13.362 32.6711 13.8186 32.4102L22.0381 27.659L22.0598 27.6699Z" fill="white"/>
</g>
</g>
</g>
<defs>
<clipPath id="clip0_3969_1070">
<rect width="44" height="44" fill="white"/>
</clipPath>
<clipPath id="clip1_3969_1070">
<rect width="44" height="44" fill="white"/>
</clipPath>
<clipPath id="clip2_3969_1070">
<rect width="44" height="44" fill="white"/>
</clipPath>
</defs>
</svg>
