<svg width="24" height="24" viewBox="0 0 24 24" fill="none" xmlns="http://www.w3.org/2000/svg">
<path fill-rule="evenodd" clip-rule="evenodd" d="M3.5 6C3.5 4.8954 4.39544 4 5.5 4H11C11.2761 4 11.5 4.22386 11.5 4.5C11.5 4.77614 11.2761 5 11 5H5.5C4.94771 5 4.5 5.4477 4.5 6V16H19.5V11C19.5 10.7239 19.7239 10.5 20 10.5C20.2761 10.5 20.5 10.7239 20.5 11V16.5C20.5 16.7761 20.2761 17 20 17H4C3.72386 17 3.5 16.7761 3.5 16.5V6Z" fill="currentColor"/>
<path fill-rule="evenodd" clip-rule="evenodd" d="M1.5 16.5C1.5 16.2239 1.72386 16 2 16H22C22.2761 16 22.5 16.2239 22.5 16.5V17.5C22.5 19.433 20.933 21 19 21H5C3.067 21 1.5 19.433 1.5 17.5V16.5ZM2.5 17V17.5C2.5 18.8807 3.61929 20 5 20H19C20.3807 20 21.5 18.8807 21.5 17.5V17H2.5Z" fill="currentColor"/>
<path fill-rule="evenodd" clip-rule="evenodd" d="M16.8536 3.14645C17.0488 3.34171 17.0488 3.65829 16.8536 3.85355L15.2071 5.5L16.8536 7.14645C17.0488 7.34171 17.0488 7.65829 16.8536 7.85355C16.6583 8.04882 16.3417 8.04882 16.1464 7.85355L14.1464 5.85355C13.9512 5.65829 13.9512 5.34171 14.1464 5.14645L16.1464 3.14645C16.3417 2.95118 16.6583 2.95118 16.8536 3.14645Z" fill="currentColor"/>
<path fill-rule="evenodd" clip-rule="evenodd" d="M19.1464 3.14645C19.3417 2.95118 19.6583 2.95118 19.8536 3.14645L21.8536 5.14645C22.0488 5.34171 22.0488 5.65829 21.8536 5.85355L19.8536 7.85355C19.6583 8.04882 19.3417 8.04882 19.1464 7.85355C18.9512 7.65829 18.9512 7.34171 19.1464 7.14645L20.7929 5.5L19.1464 3.85355C18.9512 3.65829 18.9512 3.34171 19.1464 3.14645Z" fill="currentColor"/>
</svg>
