<svg width="24" height="24" viewBox="0 0 24 24" fill="none" xmlns="http://www.w3.org/2000/svg">
<path fill-rule="evenodd" clip-rule="evenodd" d="M1.5 20C1.5 19.7239 1.72386 19.5 2 19.5H7C7.27614 19.5 7.5 19.7239 7.5 20C7.5 20.2761 7.27614 20.5 7 20.5H2C1.72386 20.5 1.5 20.2761 1.5 20Z" fill="currentColor"/>
<path fill-rule="evenodd" clip-rule="evenodd" d="M1.5 16C1.5 15.7239 1.72386 15.5 2 15.5H12C12.2761 15.5 12.5 15.7239 12.5 16C12.5 16.2761 12.2761 16.5 12 16.5H2C1.72386 16.5 1.5 16.2761 1.5 16Z" fill="currentColor"/>
<path fill-rule="evenodd" clip-rule="evenodd" d="M10.5 20C10.5 19.7239 10.7239 19.5 11 19.5H13.5C13.7761 19.5 14 19.7239 14 20C14 20.2761 13.7761 20.5 13.5 20.5H11C10.7239 20.5 10.5 20.2761 10.5 20Z" fill="currentColor"/>
<path fill-rule="evenodd" clip-rule="evenodd" d="M18 20C18 19.7239 18.2239 19.5 18.5 19.5H22C22.2761 19.5 22.5 19.7239 22.5 20C22.5 20.2761 22.2761 20.5 22 20.5H18.5C18.2239 20.5 18 20.2761 18 20Z" fill="currentColor"/>
<path fill-rule="evenodd" clip-rule="evenodd" d="M17 16C17 15.7239 17.2239 15.5 17.5 15.5H22C22.2761 15.5 22.5 15.7239 22.5 16C22.5 16.2761 22.2761 16.5 22 16.5H17.5C17.2239 16.5 17 16.2761 17 16Z" fill="currentColor"/>
<path fill-rule="evenodd" clip-rule="evenodd" d="M15.5 12C15.5 11.7239 15.7239 11.5 16 11.5H22C22.2761 11.5 22.5 11.7239 22.5 12C22.5 12.2761 22.2761 12.5 22 12.5H16C15.7239 12.5 15.5 12.2761 15.5 12Z" fill="currentColor"/>
<path fill-rule="evenodd" clip-rule="evenodd" d="M7.5 12C7.5 11.7239 7.72386 11.5 8 11.5H11C11.2761 11.5 11.5 11.7239 11.5 12C11.5 12.2761 11.2761 12.5 11 12.5H8C7.72386 12.5 7.5 12.2761 7.5 12Z" fill="currentColor"/>
<path fill-rule="evenodd" clip-rule="evenodd" d="M1.5 12C1.5 11.7239 1.72386 11.5 2 11.5H3C3.27614 11.5 3.5 11.7239 3.5 12C3.5 12.2761 3.27614 12.5 3 12.5H2C1.72386 12.5 1.5 12.2761 1.5 12Z" fill="currentColor"/>
<path fill-rule="evenodd" clip-rule="evenodd" d="M1.5 8C1.5 7.72386 1.72386 7.5 2 7.5H4C4.27614 7.5 4.5 7.72386 4.5 8C4.5 8.27614 4.27614 8.5 4 8.5H2C1.72386 8.5 1.5 8.27614 1.5 8Z" fill="currentColor"/>
<path fill-rule="evenodd" clip-rule="evenodd" d="M1.5 4C1.5 3.72386 1.72386 3.5 2 3.5H5.5C5.63261 3.5 5.75979 3.55268 5.85355 3.64645L9.70711 7.5H22C22.2761 7.5 22.5 7.72386 22.5 8C22.5 8.27614 22.2761 8.5 22 8.5H9.5C9.36739 8.5 9.24021 8.44732 9.14645 8.35355L5.29289 4.5H2C1.72386 4.5 1.5 4.27614 1.5 4Z" fill="currentColor"/>
<path fill-rule="evenodd" clip-rule="evenodd" d="M10.5 4C10.5 3.72386 10.7239 3.5 11 3.5H22C22.2761 3.5 22.5 3.72386 22.5 4C22.5 4.27614 22.2761 4.5 22 4.5H11C10.7239 4.5 10.5 4.27614 10.5 4Z" fill="currentColor"/>
</svg>
