<svg width="24" height="24" viewBox="0 0 24 24" fill="none" xmlns="http://www.w3.org/2000/svg">
<path fill-rule="evenodd" clip-rule="evenodd" d="M11 18.5C10.1716 18.5 9.5 19.1716 9.5 20C9.5 20.8284 10.1716 21.5 11 21.5C11.8284 21.5 12.5 20.8284 12.5 20C12.5 19.1716 11.8284 18.5 11 18.5ZM8.5 20C8.5 18.6193 9.61929 17.5 11 17.5C12.3807 17.5 13.5 18.6193 13.5 20C13.5 21.3807 12.3807 22.5 11 22.5C9.61929 22.5 8.5 21.3807 8.5 20Z" fill="currentColor"/>
<path fill-rule="evenodd" clip-rule="evenodd" d="M13 2.5C12.1716 2.5 11.5 3.17157 11.5 4C11.5 4.82843 12.1716 5.5 13 5.5C13.8284 5.5 14.5 4.82843 14.5 4C14.5 3.17157 13.8284 2.5 13 2.5ZM10.5 4C10.5 2.61929 11.6193 1.5 13 1.5C14.3807 1.5 15.5 2.61929 15.5 4C15.5 5.38071 14.3807 6.5 13 6.5C11.6193 6.5 10.5 5.38071 10.5 4Z" fill="currentColor"/>
<path fill-rule="evenodd" clip-rule="evenodd" d="M18 10.5C17.1716 10.5 16.5 11.1716 16.5 12C16.5 12.8284 17.1716 13.5 18 13.5C18.8284 13.5 19.5 12.8284 19.5 12C19.5 11.1716 18.8284 10.5 18 10.5ZM15.5 12C15.5 10.6193 16.6193 9.5 18 9.5C19.3807 9.5 20.5 10.6193 20.5 12C20.5 13.3807 19.3807 14.5 18 14.5C16.6193 14.5 15.5 13.3807 15.5 12Z" fill="currentColor"/>
<path fill-rule="evenodd" clip-rule="evenodd" d="M6 10.5C5.17157 10.5 4.5 11.1716 4.5 12C4.5 12.8284 5.17157 13.5 6 13.5C6.82843 13.5 7.5 12.8284 7.5 12C7.5 11.1716 6.82843 10.5 6 10.5ZM3.5 12C3.5 10.6193 4.61929 9.5 6 9.5C7.38071 9.5 8.5 10.6193 8.5 12C8.5 13.3807 7.38071 14.5 6 14.5C4.61929 14.5 3.5 13.3807 3.5 12Z" fill="currentColor"/>
<path fill-rule="evenodd" clip-rule="evenodd" d="M7.5 12C7.5 11.7239 7.72386 11.5 8 11.5H16C16.2761 11.5 16.5 11.7239 16.5 12C16.5 12.2761 16.2761 12.5 16 12.5H8C7.72386 12.5 7.5 12.2761 7.5 12Z" fill="currentColor"/>
<path fill-rule="evenodd" clip-rule="evenodd" d="M11.8124 5.10958C12.028 5.28209 12.063 5.59674 11.8905 5.81237L7.89045 10.8124C7.71795 11.028 7.4033 11.063 7.18767 10.8905C6.97204 10.7179 6.93708 10.4033 7.10958 10.1877L11.1096 5.18767C11.2821 4.97204 11.5967 4.93708 11.8124 5.10958Z" fill="currentColor"/>
<path fill-rule="evenodd" clip-rule="evenodd" d="M12.1089 18.1876L16.1095 13.1876L16.8903 13.8124L12.8898 18.8124L12.1089 18.1876Z" fill="currentColor"/>
</svg>
